<svg xmlns="http://www.w3.org/2000/svg" viewBox="0 0 325.04 138.47" role="img" aria-label="Trackdays4all">
<g transform="translate(-288.27 -121.03)">
<path fill="#FFFFFF" fill-rule="nonzero" d="M 349.792969 242.804688 C 346.457031 239.21875 341.035156 234.519531 336.253906 230.371094 C 333.316406 227.824219 330.542969 225.421875 328.496094 223.492188 C 325.105469 220.296875 321.710938 216.996094 318.429688 213.804688 C 315.085938 210.554688 311.625 207.191406 308.179688 203.949219 C 307.847656 203.636719 307.652344 203.1875 307.707031 202.738281 C 307.804688 201.921875 308.535156 201.394531 309.289062 201.496094 C 311.605469 201.792969 314.019531 201.945312 316.355469 202.089844 C 320.449219 202.34375 324.679688 202.605469 328.757812 203.671875 C 328.875 203.703125 328.984375 203.75 329.085938 203.8125 C 329.289062 203.933594 329.507812 204.050781 329.734375 204.167969 C 330.324219 204.480469 330.992188 204.835938 331.53125 205.324219 C 333.027344 206.675781 334.074219 208.429688 335.183594 210.285156 C 336.503906 212.496094 337.867188 214.78125 340.113281 216.554688 C 339.121094 217.808594 337.226562 217.867188 336.167969 216.664062 C 334.753906 215.054688 333.71875 213.320312 332.769531 211.730469 C 331.769531 210.058594 330.828125 208.480469 329.644531 207.410156 C 329.363281 207.15625 328.878906 206.902344 328.414062 206.652344 C 328.414062 206.652344 328.410156 206.652344 328.410156 206.648438 C 328.019531 206.441406 327.605469 206.277344 327.171875 206.179688 C 323.613281 205.359375 319.839844 205.125 316.179688 204.894531 C 315.144531 204.832031 314.097656 204.765625 313.046875 204.6875 C 315.523438 207.058594 317.988281 209.453125 320.390625 211.789062 C 323.664062 214.972656 327.050781 218.265625 330.425781 221.441406 C 332.429688 223.332031 335.183594 225.71875 338.097656 228.246094 C 342.929688 232.441406 348.410156 237.195312 351.851562 240.886719 Z M 367.289062 219.171875 C 364.859375 219.171875 361.640625 218.71875 357.484375 217.8125 C 354.902344 217.253906 352.496094 216.558594 350.332031 215.753906 L 351.3125 213.117188 C 353.355469 213.875 355.628906 214.53125 358.082031 215.066406 C 367.457031 217.105469 369.863281 216.226562 370.464844 215.753906 C 371.152344 215.144531 372.601562 211.136719 373.382812 208.984375 C 374.074219 207.078125 374.667969 205.433594 375.171875 204.457031 C 379.132812 196.730469 387.199219 190.546875 394.316406 185.089844 C 395.113281 184.480469 395.898438 183.878906 396.65625 183.292969 C 397.195312 182.871094 397.761719 182.429688 398.351562 181.96875 C 407.019531 175.210938 420.121094 165 429.671875 163.28125 C 432.066406 162.847656 434.34375 162.753906 437.023438 162.742188 L 437.035156 165.554688 C 434.503906 165.566406 432.363281 165.652344 430.171875 166.046875 C 421.300781 167.644531 408.019531 178 400.082031 184.1875 C 399.488281 184.652344 398.921875 185.09375 398.378906 185.515625 C 397.617188 186.105469 396.832031 186.707031 396.027344 187.324219 C 389.144531 192.597656 381.347656 198.578125 377.671875 205.738281 C 377.253906 206.558594 376.65625 208.203125 376.027344 209.941406 C 374.449219 214.300781 373.40625 217.015625 372.207031 217.960938 C 371.1875 218.765625 369.589844 219.171875 367.289062 219.171875 M 468.277344 171.957031 L 467.710938 173.242188 L 468.277344 171.957031 C 469.628906 172.546875 471.046875 173.128906 472.289062 173.378906 C 472.757812 173.476562 472.996094 173.425781 473.703125 171.300781 C 473.832031 170.917969 473.964844 170.519531 474.117188 170.132812 C 477.070312 162.703125 479.75 154.222656 474.175781 147.664062 C 470.703125 143.585938 464.246094 140.777344 457.472656 146.292969 L 455.699219 144.109375 C 458.777344 141.601562 462.425781 140.300781 465.960938 140.445312 C 469.867188 140.605469 473.449219 142.472656 476.316406 145.84375 C 482.90625 153.589844 479.984375 162.980469 476.730469 171.171875 C 476.609375 171.484375 476.492188 171.828125 476.371094 172.191406 C 475.855469 173.738281 475.027344 176.222656 472.574219 176.222656 C 472.308594 176.222656 472.03125 176.195312 471.730469 176.136719 C 470.230469 175.832031 468.644531 175.1875 467.148438 174.53125 "/>
<path fill="#E40521" fill-rule="nonzero" d="M 336.171875 216.667969 C 336 216.472656 335.828125 216.269531 335.660156 216.0625 L 337.847656 214.292969 C 338.5625 215.175781 339.304688 215.914062 340.109375 216.554688 C 339.121094 217.808594 337.226562 217.867188 336.171875 216.667969 "/>
<path fill="#E40521" fill-rule="nonzero" d="M 332.339844 211.015625 C 331.554688 209.714844 330.699219 208.363281 329.644531 207.410156 C 329.523438 207.300781 329.347656 207.179688 329.117188 207.039062 L 330.554688 204.621094 C 330.957031 204.859375 331.265625 205.082031 331.53125 205.324219 C 332.871094 206.535156 333.855469 208.078125 334.75 209.558594 Z M 324.070312 205.601562 C 322.054688 205.308594 320.050781 205.152344 318.351562 205.035156 L 318.542969 202.230469 C 320.292969 202.347656 322.367188 202.511719 324.476562 202.820312 Z M 324.070312 205.601562 "/>
<path fill="#E40521" fill-rule="nonzero" d="M 310.6875 206.324219 C 309.84375 205.519531 308.996094 204.714844 308.144531 203.914062 C 307.699219 203.496094 307.574219 202.839844 307.835938 202.289062 C 308.097656 201.738281 308.683594 201.417969 309.285156 201.496094 C 310.308594 201.625 311.433594 201.742188 312.71875 201.84375 Z M 310.6875 206.324219 "/>
<path fill="#E40521" fill-rule="nonzero" d="M 344.34375 237.53125 C 342.417969 235.773438 340.382812 233.992188 338.648438 232.480469 L 340.492188 230.359375 C 342.242188 231.878906 344.292969 233.675781 346.242188 235.457031 Z M 332.871094 227.457031 C 331.105469 225.898438 329.714844 224.640625 328.496094 223.492188 C 328.0625 223.078125 327.625 222.667969 327.195312 222.257812 L 329.128906 220.21875 C 329.5625 220.625 329.992188 221.035156 330.425781 221.445312 C 331.621094 222.570312 332.988281 223.808594 334.730469 225.34375 Z M 321.667969 216.953125 C 320.578125 215.894531 319.488281 214.835938 318.398438 213.773438 L 316.183594 211.625 L 318.144531 209.605469 L 320.359375 211.757812 C 321.449219 212.816406 322.535156 213.875 323.628906 214.929688 Z M 321.667969 216.953125 "/>
<path fill="#E40521" fill-rule="nonzero" d="M 352.078125 245.320312 C 351.394531 244.519531 350.617188 243.664062 349.769531 242.78125 L 351.800781 240.832031 C 351.96875 241.007812 352.128906 241.175781 352.289062 241.347656 C 353.367188 242.492188 353.273438 244.300781 352.078125 245.320312 "/>
<path fill="#E40521" fill-rule="nonzero" d="M 470.679688 175.875 C 469.140625 175.429688 467.476562 174.683594 465.867188 173.964844 C 465.25 173.6875 464.632812 173.414062 464.019531 173.152344 L 464.320312 172.4375 C 464.761719 171.402344 465.96875 170.925781 466.996094 171.386719 C 467 171.390625 467.007812 171.394531 467.015625 171.394531 C 468.605469 172.109375 470.109375 172.78125 471.464844 173.171875 Z M 476.777344 171.058594 L 474.160156 170.023438 C 474.867188 168.246094 475.757812 165.902344 476.410156 163.523438 L 479.125 164.269531 C 478.433594 166.777344 477.507812 169.214844 476.777344 171.058594 M 480.246094 156.972656 L 477.433594 156.957031 L 477.433594 156.808594 C 477.433594 154.550781 477.015625 152.5625 476.160156 150.730469 L 478.707031 149.539062 C 479.726562 151.722656 480.246094 154.167969 480.246094 156.808594 Z M 453.300781 146.441406 C 455.019531 144.457031 457.097656 142.867188 459.308594 141.835938 L 460.496094 144.382812 C 459.375 144.90625 458.289062 145.609375 457.28125 146.453125 C 456.128906 147.421875 454.441406 147.429688 453.300781 146.441406 M 472.230469 145.753906 C 470.507812 144.363281 468.609375 143.542969 466.585938 143.3125 L 466.898438 140.519531 C 469.464844 140.808594 471.855469 141.832031 473.996094 143.566406 Z M 472.230469 145.753906 "/>
<path fill="#E40521" fill-rule="nonzero" d="M 366.933594 219.160156 C 365.003906 219.128906 362.574219 218.832031 359.710938 218.277344 L 360.246094 215.515625 C 362.949219 216.039062 365.214844 216.320312 366.980469 216.347656 Z M 352.730469 216.570312 C 350.140625 215.765625 347.867188 214.832031 345.972656 213.792969 C 346.707031 212.460938 348.328125 211.886719 349.726562 212.484375 C 350.894531 212.984375 352.179688 213.453125 353.5625 213.882812 Z M 373.921875 215.347656 L 371.367188 214.171875 C 372.019531 212.753906 372.710938 210.84375 373.378906 208.992188 C 373.539062 208.550781 373.695312 208.117188 373.847656 207.703125 L 376.488281 208.671875 C 376.339844 209.082031 376.183594 209.511719 376.027344 209.949219 C 375.335938 211.855469 374.621094 213.824219 373.921875 215.347656 M 379.492188 202.734375 L 377.183594 201.128906 C 378.460938 199.296875 379.996094 197.480469 381.875 195.578125 L 383.875 197.554688 C 382.109375 199.339844 380.675781 201.035156 379.492188 202.734375 M 388.972656 192.902344 L 387.164062 190.746094 C 389.089844 189.128906 391.050781 187.601562 392.710938 186.324219 L 394.429688 188.550781 C 392.789062 189.816406 390.859375 191.320312 388.972656 192.902344 M 400.003906 184.25 L 398.277344 182.027344 L 398.371094 181.957031 C 400.015625 180.671875 401.882812 179.21875 403.863281 177.714844 L 405.5625 179.960938 C 403.597656 181.449219 401.738281 182.898438 400.097656 184.175781 Z M 411.199219 175.828125 L 409.578125 173.527344 C 411.667969 172.054688 413.664062 170.730469 415.503906 169.582031 L 416.992188 171.972656 C 415.195312 173.089844 413.246094 174.386719 411.199219 175.828125 M 423.003906 168.605469 L 421.769531 166.078125 C 424.292969 164.84375 426.601562 163.976562 428.632812 163.496094 L 429.28125 166.234375 C 427.453125 166.664062 425.339844 167.464844 423.003906 168.605469 M 435.964844 165.566406 L 435.921875 162.753906 C 436.515625 162.742188 437.109375 162.742188 437.707031 162.742188 C 438.546875 162.742188 439.222656 163.421875 439.222656 164.261719 L 439.222656 165.554688 L 437.707031 165.554688 C 437.125 165.554688 436.542969 165.558594 435.964844 165.566406 "/>
<path fill="#0E0E10" fill-rule="nonzero" d="M 330.585938 206.367188 C 330.121094 205.945312 329.925781 205.824219 329.160156 205.429688 C 328.597656 205.136719 327.996094 204.921875 327.378906 204.78125 C 321.425781 203.429688 315.15625 203.671875 309.109375 202.890625 C 315.960938 209.335938 322.613281 216.015625 329.460938 222.464844 C 336.609375 229.203125 347.039062 237.246094 353.148438 244.410156 C 354.699219 246.226562 355.980469 248.046875 354.414062 250.449219 C 352.425781 253.5 349.210938 251.570312 347.152344 249.847656 C 329.578125 235.160156 313.601562 216.945312 296.410156 201.683594 C 294.382812 199.636719 294.269531 196.199219 296.871094 194.601562 C 298.277344 193.738281 300.246094 194.003906 301.890625 194.070312 C 305.597656 194.21875 309.710938 194.96875 313.457031 195.273438 C 320.273438 195.828125 329.523438 195.132812 335.054688 199.566406 C 338.875 202.628906 339.988281 207.402344 343.546875 210.457031 C 347.160156 213.558594 353.183594 215.4375 357.78125 216.4375 C 360.898438 217.117188 368.890625 218.789062 371.335938 216.855469 C 372.871094 215.644531 375.164062 207.546875 376.421875 205.097656 C 380.683594 196.789062 390.226562 190.058594 397.519531 184.402344 C 405.609375 178.125 420.050781 166.441406 429.921875 164.664062 C 433.046875 164.101562 436.0625 164.144531 439.222656 164.152344 C 441.671875 153.167969 444.320312 142.507812 454.683594 136.410156 C 470.625 127.027344 488.804688 141.015625 487.453125 158.425781 C 487.085938 163.164062 483.007812 175.898438 480.433594 179.882812 C 478.464844 182.933594 474.59375 184.023438 471.113281 183.398438 C 469.292969 183.074219 458.15625 178.902344 456.324219 177.960938 C 453.507812 176.511719 454.25 173.25 456.003906 171.234375 C 457.117188 169.957031 458.644531 170.160156 460.21875 170.429688 C 463.917969 171.0625 468.484375 174.042969 472.007812 174.757812 C 474.328125 175.226562 474.664062 172.5625 475.425781 170.652344 C 478.523438 162.855469 481.316406 153.890625 475.246094 146.753906 C 467.851562 138.0625 456.796875 141.8125 451.925781 150.914062 C 448.65625 157.027344 448.652344 164.632812 446.058594 170.90625 C 444.320312 175.113281 438.503906 172.4375 434.914062 172.449219 C 427.046875 172.46875 418.847656 178.824219 412.664062 183.242188 C 405.632812 188.265625 392.246094 197.542969 386.894531 203.703125 C 380.550781 211 382.117188 223.308594 370.960938 225.507812 C 363.195312 227.039062 345.558594 222.644531 339.238281 217.65625 C 334.878906 214.210938 333.644531 209.128906 330.585938 206.367188 "/>
<path fill="#0E0E10" fill-rule="nonzero" d="M 404.664062 218 L 414.425781 196.691406 L 407.765625 196.691406 L 410.226562 191.347656 L 429.519531 191.347656 L 427.058594 196.691406 L 420.398438 196.691406 L 410.671875 218 Z M 404.664062 218 "/>
<path fill="#0E0E10" fill-rule="nonzero" d="M 420.351562 218 L 432.539062 191.347656 L 443.867188 191.347656 C 445.605469 191.347656 446.886719 191.554688 447.714844 191.964844 C 448.542969 192.378906 449.046875 192.972656 449.230469 193.75 C 449.410156 194.523438 449.347656 195.480469 449.042969 196.617188 C 448.953125 196.953125 448.839844 197.320312 448.695312 197.71875 C 448.554688 198.121094 448.390625 198.539062 448.207031 198.980469 C 448.019531 199.417969 447.816406 199.871094 447.601562 200.335938 C 447.167969 201.265625 446.730469 202.117188 446.28125 202.890625 C 445.832031 203.667969 445.371094 204.351562 444.890625 204.945312 C 444.410156 205.539062 443.859375 206.0625 443.234375 206.515625 C 442.609375 206.964844 441.882812 207.335938 441.050781 207.617188 L 439.917969 218 L 433.839844 218 L 435.238281 208.433594 L 430.742188 208.433594 L 426.359375 218 Z M 432.921875 203.628906 L 436.664062 203.628906 C 437.4375 203.628906 438.078125 203.570312 438.578125 203.453125 C 439.078125 203.335938 439.5 203.148438 439.84375 202.890625 C 440.1875 202.632812 440.503906 202.265625 440.792969 201.789062 C 441.082031 201.308594 441.390625 200.710938 441.722656 199.984375 C 441.902344 199.574219 442.058594 199.199219 442.195312 198.863281 C 442.332031 198.527344 442.433594 198.230469 442.503906 197.972656 C 442.605469 197.582031 442.609375 197.269531 442.515625 197.023438 C 442.421875 196.777344 442.179688 196.597656 441.785156 196.480469 C 441.394531 196.363281 440.820312 196.304688 440.066406 196.304688 L 436.253906 196.304688 Z M 432.921875 203.628906 "/>
<path fill="#0E0E10" fill-rule="nonzero" d="M 441.492188 218 L 461.40625 191.347656 L 469.539062 191.347656 L 465.109375 218 L 459.273438 218 L 460.136719 212.730469 L 451.453125 212.730469 L 447.5 218 Z M 454.875 207.773438 L 461.15625 207.773438 L 463.003906 197.160156 L 462.765625 197.160156 Z M 454.875 207.773438 "/>
<path fill="#0E0E10" fill-rule="nonzero" d="M 477.347656 218.3125 C 475.3125 218.3125 473.703125 218.125 472.519531 217.75 C 471.339844 217.375 470.574219 216.71875 470.21875 215.773438 C 469.867188 214.832031 469.910156 213.535156 470.351562 211.878906 C 470.601562 210.949219 470.960938 209.890625 471.425781 208.703125 C 471.894531 207.515625 472.476562 206.171875 473.175781 204.675781 C 474.25 202.375 475.226562 200.425781 476.101562 198.824219 C 476.976562 197.222656 477.828125 195.914062 478.664062 194.890625 C 479.496094 193.871094 480.402344 193.082031 481.375 192.527344 C 482.347656 191.972656 483.46875 191.585938 484.742188 191.367188 C 486.011719 191.148438 487.527344 191.035156 489.289062 191.035156 C 490 191.035156 490.742188 191.0625 491.519531 191.113281 C 492.292969 191.164062 493.027344 191.242188 493.71875 191.347656 C 494.414062 191.449219 494.996094 191.566406 495.464844 191.695312 L 493.261719 196.460938 C 492.527344 196.382812 491.867188 196.320312 491.289062 196.265625 C 490.707031 196.214844 490.207031 196.175781 489.789062 196.152344 C 489.375 196.125 489.015625 196.113281 488.71875 196.113281 C 487.644531 196.113281 486.738281 196.15625 486.007812 196.246094 C 485.273438 196.339844 484.636719 196.53125 484.101562 196.828125 C 483.5625 197.125 483.058594 197.578125 482.585938 198.183594 C 482.117188 198.792969 481.609375 199.625 481.078125 200.683594 C 480.539062 201.742188 479.921875 203.074219 479.21875 204.675781 C 478.613281 205.992188 478.101562 207.128906 477.6875 208.082031 C 477.269531 209.039062 476.984375 209.8125 476.824219 210.40625 C 476.601562 211.234375 476.597656 211.847656 476.8125 212.25 C 477.023438 212.648438 477.460938 212.914062 478.125 213.042969 C 478.789062 213.171875 479.714844 213.234375 480.90625 213.234375 C 481.636719 213.234375 482.476562 213.203125 483.421875 213.140625 C 484.363281 213.074219 485.203125 212.992188 485.941406 212.886719 L 483.671875 217.769531 C 483.140625 217.875 482.507812 217.96875 481.773438 218.058594 C 481.039062 218.148438 480.292969 218.214844 479.527344 218.253906 C 478.761719 218.292969 478.035156 218.3125 477.347656 218.3125 "/>
<path fill="#0E0E10" fill-rule="nonzero" d="M 487.558594 218 L 499.746094 191.347656 L 505.753906 191.347656 L 500.882812 201.960938 L 502.90625 201.960938 L 514.125 191.347656 L 520.785156 191.347656 L 506.582031 204.519531 L 508.699219 218 L 502.28125 218 L 500.617188 206.921875 L 498.625 206.921875 L 493.5625 218 Z M 487.558594 218 "/>
<path fill="#0E0E10" fill-rule="nonzero" d="M 511.550781 218 L 523.738281 191.347656 L 531.835938 191.347656 C 534.285156 191.347656 536.160156 191.519531 537.464844 191.871094 C 538.765625 192.21875 539.589844 192.820312 539.933594 193.671875 C 540.277344 194.523438 540.238281 195.738281 539.816406 197.3125 C 539.566406 198.242188 539.1875 199.335938 538.679688 200.585938 C 538.171875 201.839844 537.554688 203.277344 536.820312 204.90625 C 535.824219 207.074219 534.945312 208.929688 534.179688 210.464844 C 533.414062 212.003906 532.640625 213.261719 531.863281 214.242188 C 531.085938 215.226562 530.214844 215.996094 529.253906 216.546875 C 528.292969 217.105469 527.144531 217.484375 525.808594 217.691406 C 524.46875 217.898438 522.820312 218 520.851562 218 Z M 519.875 212.925781 L 522.109375 212.925781 C 523.089844 212.925781 523.90625 212.894531 524.554688 212.828125 C 525.199219 212.765625 525.761719 212.597656 526.234375 212.324219 C 526.707031 212.054688 527.160156 211.628906 527.589844 211.046875 C 528.019531 210.464844 528.492188 209.664062 529.003906 208.644531 C 529.515625 207.625 530.140625 206.300781 530.875 204.675781 C 531.523438 203.277344 532.050781 202.105469 532.453125 201.148438 C 532.859375 200.191406 533.144531 199.40625 533.3125 198.785156 C 533.464844 198.21875 533.507812 197.769531 533.445312 197.449219 C 533.382812 197.125 533.199219 196.894531 532.894531 196.75 C 532.589844 196.609375 532.167969 196.519531 531.628906 196.480469 C 531.089844 196.441406 530.421875 196.421875 529.621094 196.421875 L 527.421875 196.421875 Z M 519.875 212.925781 "/>
<path fill="#0E0E10" fill-rule="nonzero" d="M 533.070312 218 L 552.980469 191.347656 L 561.117188 191.347656 L 556.683594 218 L 550.851562 218 L 551.710938 212.730469 L 543.027344 212.730469 L 539.078125 218 Z M 546.449219 207.773438 L 552.734375 207.773438 L 554.582031 197.160156 L 554.339844 197.160156 Z M 546.449219 207.773438 "/>
<path fill="#0E0E10" fill-rule="nonzero" d="M 562.554688 218 L 566.808594 208.78125 L 566.675781 191.347656 L 572.683594 191.347656 L 572.4375 202.503906 L 572.679688 202.503906 L 582.671875 191.347656 L 588.882812 191.347656 L 572.78125 208.78125 L 568.5625 218 Z M 562.554688 218 "/>
<path fill="#0E0E10" fill-rule="nonzero" d="M 588.113281 218.3125 C 587.128906 218.3125 586.089844 218.285156 584.992188 218.234375 C 583.894531 218.183594 582.835938 218.105469 581.808594 218.003906 C 580.785156 217.898438 579.886719 217.796875 579.113281 217.691406 L 581.324219 212.773438 C 582.125 212.847656 582.953125 212.925781 583.800781 213.003906 C 584.652344 213.082031 585.464844 213.140625 586.242188 213.179688 C 587.023438 213.21875 587.699219 213.234375 588.269531 213.234375 C 588.980469 213.234375 589.582031 213.222656 590.082031 213.199219 C 590.582031 213.171875 591.007812 213.121094 591.359375 213.042969 C 591.710938 212.964844 592.03125 212.863281 592.320312 212.734375 C 592.511719 212.605469 592.707031 212.4375 592.898438 212.230469 C 593.089844 212.023438 593.28125 211.785156 593.46875 211.511719 C 593.65625 211.242188 593.816406 210.957031 593.953125 210.660156 C 594.089844 210.363281 594.21875 210.066406 594.332031 209.769531 C 594.445312 209.472656 594.53125 209.21875 594.585938 209.011719 C 594.675781 208.675781 594.671875 208.425781 594.582031 208.257812 C 594.488281 208.089844 594.257812 207.953125 593.882812 207.851562 C 593.511719 207.746094 592.945312 207.617188 592.1875 207.464844 L 587.632812 206.648438 C 586.46875 206.46875 585.753906 206.011719 585.496094 205.273438 C 585.234375 204.539062 585.277344 203.523438 585.625 202.234375 C 585.761719 201.71875 585.949219 201.144531 586.1875 200.507812 C 586.425781 199.875 586.707031 199.210938 587.03125 198.515625 C 587.8125 196.886719 588.625 195.574219 589.476562 194.582031 C 590.324219 193.589844 591.246094 192.839844 592.242188 192.335938 C 593.234375 191.832031 594.324219 191.488281 595.519531 191.308594 C 596.710938 191.128906 598.003906 191.035156 599.402344 191.035156 C 600.363281 191.035156 601.347656 191.070312 602.363281 191.132812 C 603.375 191.199219 604.3125 191.28125 605.179688 191.386719 C 606.042969 191.488281 606.75 191.617188 607.304688 191.773438 L 605.125 196.578125 C 604.527344 196.5 603.84375 196.421875 603.078125 196.34375 C 602.308594 196.265625 601.503906 196.207031 600.667969 196.167969 C 599.832031 196.132812 599.046875 196.113281 598.316406 196.113281 C 597.699219 196.113281 597.167969 196.132812 596.722656 196.167969 C 596.277344 196.207031 595.882812 196.273438 595.539062 196.363281 C 595.191406 196.453125 594.898438 196.578125 594.648438 196.730469 C 594.378906 196.886719 594.128906 197.085938 593.90625 197.332031 C 593.679688 197.578125 593.472656 197.855469 593.289062 198.164062 C 593.101562 198.476562 592.949219 198.785156 592.832031 199.09375 C 592.714844 199.40625 592.613281 199.714844 592.53125 200.023438 C 592.40625 200.488281 592.472656 200.792969 592.734375 200.933594 C 592.992188 201.078125 593.492188 201.214844 594.238281 201.34375 L 598.535156 202.078125 C 599.257812 202.207031 599.902344 202.402344 600.476562 202.660156 C 601.046875 202.917969 601.441406 203.363281 601.660156 203.996094 C 601.878906 204.628906 601.820312 205.578125 601.480469 206.84375 C 601.398438 207.152344 601.296875 207.488281 601.175781 207.851562 C 601.058594 208.214844 600.914062 208.601562 600.746094 209.011719 C 600.578125 209.425781 600.390625 209.851562 600.179688 210.292969 C 599.316406 212.152344 598.449219 213.617188 597.578125 214.6875 C 596.707031 215.761719 595.789062 216.554688 594.828125 217.074219 C 593.867188 217.589844 592.835938 217.925781 591.746094 218.078125 C 590.648438 218.234375 589.4375 218.3125 588.113281 218.3125 "/>
<path fill="#E40521" fill-rule="nonzero" d="M 373.625 252.054688 L 376.105469 246.628906 L 364.539062 246.628906 L 366.566406 242.136719 L 382.207031 225.398438 L 388.902344 225.398438 L 373.109375 241.554688 L 378.632812 241.554688 L 383.394531 234.929688 L 387.308594 234.929688 L 384.296875 241.554688 L 387.25 241.554688 L 384.960938 246.628906 L 381.976562 246.628906 L 379.492188 252.054688 Z M 373.625 252.054688 "/>
<path fill="#E40521" fill-rule="nonzero" d="M 383.921875 252.054688 L 403.832031 225.398438 L 411.964844 225.398438 L 407.535156 252.054688 L 401.699219 252.054688 L 402.5625 246.785156 L 393.878906 246.785156 L 389.925781 252.054688 Z M 397.300781 241.824219 L 403.582031 241.824219 L 405.429688 231.210938 L 405.191406 231.210938 Z M 397.300781 241.824219 "/>
<path fill="#E40521" fill-rule="nonzero" d="M 410.316406 252.054688 L 422.503906 225.398438 L 428.511719 225.398438 L 418.785156 246.707031 L 428.222656 246.707031 L 425.761719 252.054688 Z M 410.316406 252.054688 "/>
<path fill="#E40521" fill-rule="nonzero" d="M 428.851562 252.054688 L 441.039062 225.398438 L 447.046875 225.398438 L 437.320312 246.707031 L 446.757812 246.707031 L 444.296875 252.054688 Z M 428.851562 252.054688 "/>
</g></svg>
